<svg width="800" height="400" xmlns="http://www.w3.org/2000/svg">
  <rect width="800" height="400" fill="white"/>

  <!-- Title -->
  <text x="400" y="30" text-anchor="middle" font-family="Arial, sans-serif" font-size="24" font-weight="bold" fill="#333">Time Spy Extreme v1.2</text>

  <!-- Y-axis labels -->
  <text x="120" y="120" text-anchor="end" font-family="Arial, sans-serif" font-size="16" fill="#666">RTX4090</text>
  <text x="120" y="180" text-anchor="end" font-family="Arial, sans-serif" font-size="16" fill="#666">RTX5090</text>

  <!-- RTX4090 bar -->
  <rect x="130" y="100" width="334" height="30" fill="#3b82f6" rx="5"/>
  <text x="475" y="120" font-family="Arial, sans-serif" font-size="14" fill="#333">16,718</text>

  <!-- RTX5090 bar -->
  <rect x="130" y="160" width="418" height="30" fill="#10b981" rx="5"/>
  <text x="560" y="180" font-family="Arial, sans-serif" font-size="14" fill="#333">20,905</text>

  <!-- X-axis -->
  <line x1="130" y1="220" x2="650" y2="220" stroke="#ccc" stroke-width="1"/>

  <!-- X-axis labels -->
  <text x="130" y="240" text-anchor="middle" font-family="Arial, sans-serif" font-size="12" fill="#666">0</text>
  <text x="230" y="240" text-anchor="middle" font-family="Arial, sans-serif" font-size="12" fill="#666">5,000</text>
  <text x="330" y="240" text-anchor="middle" font-family="Arial, sans-serif" font-size="12" fill="#666">10,000</text>
  <text x="430" y="240" text-anchor="middle" font-family="Arial, sans-serif" font-size="12" fill="#666">15,000</text>
  <text x="530" y="240" text-anchor="middle" font-family="Arial, sans-serif" font-size="12" fill="#666">20,000</text>
  <text x="630" y="240" text-anchor="middle" font-family="Arial, sans-serif" font-size="12" fill="#666">25,000</text>

  <!-- Grid lines -->
  <line x1="230" y1="80" x2="230" y2="220" stroke="#eee" stroke-width="1"/>
  <line x1="330" y1="80" x2="330" y2="220" stroke="#eee" stroke-width="1"/>
  <line x1="430" y1="80" x2="430" y2="220" stroke="#eee" stroke-width="1"/>
  <line x1="530" y1="80" x2="530" y2="220" stroke="#eee" stroke-width="1"/>
  <line x1="630" y1="80" x2="630" y2="220" stroke="#eee" stroke-width="1"/>
</svg>
